<?xml version="1.0" encoding="UTF-8"?>
<svg width="32px" height="32px" viewBox="0 0 32 32" version="1.1" xmlns="http://www.w3.org/2000/svg" xmlns:xlink="http://www.w3.org/1999/xlink">
    <!-- Generator: Sketch 57.1 (83088) - https://sketch.com -->
    <title>Icons/32x32/Menu Player Close</title>
    <desc>Created with Sketch.</desc>
    <g id="Icons/32x32/Menu-Player-Close" stroke="none" stroke-width="1" fill="none" fill-rule="evenodd">
        <path d="M17.4142136,16 L22.363961,20.9497475 C22.7544853,21.3402718 22.7544853,21.9734367 22.363961,22.363961 C21.9734367,22.7544853 21.3402718,22.7544853 20.9497475,22.363961 L16,17.4142136 L11.0502525,22.363961 C10.6597282,22.7544853 10.0265633,22.7544853 9.63603897,22.363961 C9.24551468,21.9734367 9.24551468,21.3402718 9.63603897,20.9497475 L14.5857864,16 L9.63603897,11.0502525 C9.24551468,10.6597282 9.24551468,10.0265633 9.63603897,9.63603897 C10.0265633,9.24551468 10.6597282,9.24551468 11.0502525,9.63603897 L16,14.5857864 L20.9497475,9.63603897 C21.3402718,9.24551468 21.9734367,9.24551468 22.363961,9.63603897 C22.7544853,10.0265633 22.7544853,10.6597282 22.363961,11.0502525 L17.4142136,16 Z" id="Path" fill="#FFFFFF"></path>
    </g>
</svg>