<?xml version="1.0" encoding="UTF-8"?>
<svg width="20px" height="20px" viewBox="0 0 20 20" version="1.1" xmlns="http://www.w3.org/2000/svg" xmlns:xlink="http://www.w3.org/1999/xlink">
    <!-- Generator: Sketch 57.1 (83088) - https://sketch.com -->
    <title>Icons/20/Announcement</title>
    <desc>Created with Sketch.</desc>
    <g id="Icons/20/Announcement" stroke="none" stroke-width="1" fill="none" fill-rule="evenodd">
        <path d="M4.99208563,14.4925986 L6.01814606,17.3116765 C6.20703857,17.8306544 5.93945149,18.4044967 5.42047359,18.5933892 C4.90149568,18.7822818 4.32765333,18.5146947 4.13876082,17.9957168 L3.11270039,15.1766389 L4.99208563,14.4925986 Z M10.5332963,3.45548652 C10.5593841,3.49213826 10.5804061,3.53214318 10.5957929,3.57441811 L13.5657789,11.7343878 C13.6602252,11.9938767 13.5264317,12.2807979 13.2669427,12.3752442 C13.2240581,12.3908529 13.1792384,12.4005169 13.1337321,12.403967 L6.405,12.913 L3.71037287,13.8949261 C3.19139496,14.0838186 2.61755261,13.8162316 2.4286601,13.2972537 L1.06057953,9.53848318 C0.871687022,9.01950527 1.1392741,8.44566292 1.65825201,8.25677041 L4.252,7.312 L9.8360049,3.33807841 C10.060978,3.17794806 10.373166,3.23051346 10.5332963,3.45548652 Z M14.7952181,9.26552383 L14.8771377,9.27349497 L18.7684254,10.007316 C19.0264469,10.0559739 19.1993037,10.3005995 19.1590022,10.5600575 C19.1582487,10.5649088 19.1574168,10.5697475 19.1565071,10.5745719 C19.1098308,10.8220858 18.8713425,10.9848969 18.6238286,10.9382206 L18.6238286,10.9382206 L14.7325409,10.2043995 C14.4745194,10.1557417 14.3016627,9.911116 14.3419641,9.65165799 C14.3427176,9.64680675 14.3435495,9.64196799 14.3444593,9.63714361 C14.3911356,9.38962971 14.6296238,9.22681868 14.8771377,9.27349497 Z M17.7193944,5.60352598 C17.8138406,5.86301493 17.6800471,6.14993611 17.4205581,6.24438236 L13.6617876,7.61246294 C13.4022987,7.70690919 13.1153775,7.57311565 13.0209313,7.3136267 C12.926485,7.05413775 13.0602786,6.76721657 13.3197675,6.67277032 L17.078538,5.30468974 C17.3380269,5.21024349 17.6249481,5.34403703 17.7193944,5.60352598 Z M15.7092316,1.1032603 C15.7130295,1.10637119 15.7167771,1.10954321 15.7204726,1.11277511 C15.9181217,1.2856262 15.9429481,1.58413055 15.7765688,1.7872576 L13.2673606,4.85066866 C13.1077569,5.04552364 12.8204114,5.07410046 12.6255564,4.91449676 C12.6217584,4.91138587 12.6180109,4.90821385 12.6143153,4.90498195 C12.4166662,4.73213086 12.3918398,4.43362652 12.5582191,4.23049946 L15.0674273,1.1670884 C15.227031,0.972233419 15.5143766,0.943656605 15.7092316,1.1032603 Z" id="Combined-Shape" fill="#01ACCD"></path>
    </g>
</svg>