<?xml version="1.0" encoding="UTF-8"?>
<svg width="32px" height="32px" viewBox="0 0 32 32" version="1.1" xmlns="http://www.w3.org/2000/svg" xmlns:xlink="http://www.w3.org/1999/xlink">
    <!-- Generator: Sketch 57 (83077) - https://sketch.com -->
    <title>icon/Announcement</title>
    <desc>Created with Sketch.</desc>
    <g id="Q&amp;A" stroke="none" stroke-width="1" fill="none" fill-rule="evenodd" opacity="0.9">
        <g id="Attached/Announcement" transform="translate(-105.000000, -455.000000)" fill="#01ACCD">
            <g id="Announcement" transform="translate(81.000000, 431.000000)">
                <g id="user/-Announcement">
                    <g transform="translate(16.000000, 16.000000)">
                        <g id="Group-2" transform="translate(8.000000, 8.000000)">
                            <g id="Icons/16/Announcement">
                                <path d="M5.19588926,14.0045372 L15.9154083,6.24730557 C16.3628297,5.92352696 16.9880107,6.0237592 17.3117894,6.47118054 C17.3660774,6.54619986 17.4096823,6.62839619 17.441354,6.71541343 L22.0167063,19.2860906 C22.2055988,19.8050685 21.9380117,20.3789108 21.4190338,20.5678033 C21.3307651,20.5999305 21.2384099,20.6194607 21.1446917,20.6258179 L7.93205041,21.5220782 L6.05266516,22.2061185 C5.01470936,22.5839035 3.86702465,22.0487293 3.48923964,21.0107735 L2.12115906,17.252003 C1.74337404,16.2140472 2.27854821,15.0663625 3.31650402,14.6885775 L5.19588926,14.0045372 L5.19588926,14.0045372 Z M4.85732021,24.769544 L8.61609069,23.4014634 L9.98417127,27.1602339 C10.3619563,28.1981897 9.82678212,29.3458744 8.78882631,29.7236595 C7.7508705,30.1014445 6.6031858,29.5662703 6.22540078,28.5283145 L4.85732021,24.769544 Z M22.1967242,11.0092727 L27.83488,8.9571518 C28.3538579,8.76825929 28.9277002,9.03584637 29.1165927,9.55482428 C29.3054852,10.0738022 29.0378982,10.6476445 28.5189203,10.836537 L22.8807645,12.8886579 C22.3617866,13.0775504 21.7879443,12.8099633 21.5990518,12.2909854 C21.4101593,11.7720075 21.6777463,11.1981652 22.1967242,11.0092727 Z M25.9667863,3.64281089 L22.1100607,8.23907755 C21.7550589,8.66215221 21.1243033,8.71733618 20.7012286,8.36233438 C20.2781539,8.00733259 20.22297,7.376577 20.5779718,6.95350233 L24.4346974,2.35723567 C24.7896992,1.93416101 25.4204548,1.87897705 25.8435295,2.23397884 C26.2666042,2.58898063 26.3217881,3.21973623 25.9667863,3.64281089 Z M30.5046922,16.1106048 C31.0485865,16.2065081 31.411755,16.7251665 31.3158518,17.2690608 C31.2199485,17.8129551 30.7012902,18.1761236 30.1573959,18.0802203 L24.2485493,17.0383313 C23.704655,16.942428 23.3414865,16.4237697 23.4373898,15.8798754 C23.533293,15.335981 24.0519514,14.9728125 24.5958457,15.0687158 L30.5046922,16.1106048 Z" id="Shape"></path>
                            </g>
                        </g>
                    </g>
                </g>
            </g>
        </g>
    </g>
</svg>